<svg xmlns="http://www.w3.org/2000/svg" xmlns:xlink="http://www.w3.org/1999/xlink" version="1.1" x="0px" y="0px" viewBox="0 0 64 80" style="enable-background:new 0 0 64 64;" xml:space="preserve"><rect x="45" y="30" width="2" height="2"/><rect x="41" y="30" width="2" height="2"/><rect x="37" y="30" width="2" height="2"/><path d="M62,13v-2H50h-8V9c0-3.859-3.141-7-7-7h-6c-3.859,0-7,3.141-7,7v2h-8c-0.553,0-1,0.447-1,1v19  c0,0.633,0.13,1.234,0.346,1.792L2.75,35.532C2.309,35.646,2,36.044,2,36.5s0.309,0.854,0.75,0.968L16,40.894V46H5v2h11v2H8v2h8v2  h-5v2h5.839l14.845,4.948C31.786,60.982,31.894,61,32,61s0.214-0.018,0.316-0.052l15-5C47.725,55.812,48,55.431,48,55V40.894  l10-2.586v14.455l-1.895,3.789c-0.141,0.281-0.141,0.613,0,0.895l2,4C58.275,61.786,58.621,62,59,62s0.725-0.214,0.895-0.553l2-4  c0.141-0.281,0.141-0.613,0-0.895L60,52.764V37.791l1.25-0.323C61.691,37.354,62,36.956,62,36.5s-0.309-0.854-0.75-0.968  l-10.596-2.741C50.87,32.234,51,31.633,51,31V21h5v-2h-5v-2h8v-2h-8v-2H62z M59,58.764L58.118,57L59,55.236L59.882,57L59,58.764z   M24,9c0-2.757,2.243-5,5-5h6c2.757,0,5,2.243,5,5v2h-2V9c0-1.654-1.346-3-3-3h-6c-1.654,0-3,1.346-3,3v2h-2V9z M36,11h-8V9  c0-0.552,0.448-1,1-1h6c0.552,0,1,0.448,1,1V11z M15,13h34v4c0,1.654-1.346,3-3,3h-2h-4h-4v-3c0-0.553-0.447-1-1-1h-6  c-0.553,0-1,0.447-1,1v3h-4h-4h-2c-1.654,0-3-1.346-3-3V13z M49,31c0,0.68-0.236,1.3-0.618,1.804  c-0.006,0.007-0.015,0.012-0.021,0.02c-0.141,0.183-0.3,0.345-0.472,0.488c-0.008,0.007-0.016,0.014-0.025,0.02  c-0.156,0.127-0.324,0.232-0.5,0.325c-0.03,0.015-0.058,0.034-0.088,0.048c-0.161,0.078-0.33,0.135-0.503,0.182  c-0.042,0.011-0.081,0.029-0.123,0.038C46.439,33.972,46.222,34,46,34H18c-0.222,0-0.439-0.028-0.651-0.076  c-0.043-0.009-0.082-0.027-0.123-0.038c-0.172-0.047-0.342-0.104-0.502-0.182c-0.031-0.014-0.059-0.033-0.089-0.048  c-0.175-0.092-0.344-0.198-0.499-0.324c-0.008-0.007-0.016-0.014-0.025-0.02c-0.172-0.143-0.331-0.305-0.472-0.488  c-0.006-0.008-0.014-0.012-0.021-0.02C15.236,32.3,15,31.68,15,31V20.974C15.838,21.609,16.87,22,18,22h1v3c0,0.553,0.447,1,1,1h4  c0.553,0,1-0.447,1-1v-3h4h6h4v3c0,0.553,0.447,1,1,1h4c0.553,0,1-0.447,1-1v-3h1c1.13,0,2.162-0.391,3-1.026V31z M21,22h2v2h-2V22z   M34,20h-4v-2h4V20z M41,22h2v2h-2V22z M46,54.279l-14,4.667l-14-4.667V41.412l13.75,3.556C31.832,44.989,31.916,45,32,45  s0.168-0.011,0.25-0.032L46,41.412V54.279z M32,42.967L6.993,36.5l7.504-1.941c0.457,0.45,0.998,0.811,1.599,1.06  c0.111,0.046,0.23,0.069,0.343,0.107c0.19,0.063,0.376,0.134,0.575,0.174C17.335,35.965,17.665,36,18,36h28  c0.335,0,0.665-0.035,0.986-0.1c0.199-0.04,0.385-0.112,0.575-0.174c0.114-0.038,0.233-0.061,0.343-0.107  c0.601-0.249,1.143-0.61,1.599-1.06l7.504,1.941L32,42.967z"/></svg>